<?xml version="1.0" encoding="UTF-8"?>
<svg width="297mm" height="210mm" version="1.1" viewBox="0 0 1052.3622 744.09448" xmlns="http://www.w3.org/2000/svg">
 <g transform="translate(0 -308.27)">
  <rect x="23.495" y="331.59" width="1010.2" height="692.96" rx="0" ry="0" stroke="#000" stroke-width="13.196"/>
  <g transform="translate(-2.7688 -3.5597)" fill="#fff" stroke="#000" stroke-linejoin="round" stroke-width="13.196">
   <rect x="905.71" y="378.08" width="105.71" height="65.714" ry="18.183"/>
   <rect x="904.77" y="486.06" width="105.71" height="65.714" ry="18.183"/>
   <rect x="905.24" y="595.27" width="105.71" height="65.714" ry="18.183"/>
   <rect x="904.03" y="704.17" width="105.71" height="65.714" ry="18.183"/>
   <rect x="902.77" y="813.33" width="105.71" height="65.714" ry="18.183"/>
   <rect x="902.75" y="921.43" width="105.71" height="65.714" ry="18.183"/>
  </g>
  <rect x="49.64" y="374.23" width="105.71" height="65.714" ry="18.183" fill="#fff" stroke="#000" stroke-linejoin="round" stroke-width="13.196"/>
  <rect x="48.693" y="482.21" width="105.71" height="65.714" ry="18.183" fill="#fff" stroke="#000" stroke-linejoin="round" stroke-width="13.196"/>
  <rect x="49.166" y="591.42" width="105.71" height="65.714" ry="18.183" fill="#fff" stroke="#000" stroke-linejoin="round" stroke-width="13.196"/>
  <rect x="47.952" y="700.32" width="105.71" height="65.714" ry="18.183" fill="#fff" stroke="#000" stroke-linejoin="round" stroke-width="13.196"/>
  <rect x="46.693" y="809.48" width="105.71" height="65.714" ry="18.183" fill="#fff" stroke="#000" stroke-linejoin="round" stroke-width="13.196"/>
  <rect x="46.673" y="917.59" width="105.71" height="65.714" ry="18.183" fill="#fff" stroke="#000" stroke-linejoin="round" stroke-width="13.196"/>
  <rect x="177.06" y="367.96" width="703.07" height="622.25" ry="19.193" fill="#fff" stroke="#000" stroke-linejoin="round" stroke-width="11.4"/>
  <path d="m30.303 678.24v-338.4h996.02v676.8h-996.02v-338.4zm843.88 314.24c13.673-8.337 12.725 15.005 12.725-313.23 0-324.26 0.75428-303.45-11.344-312.97l-5.3636-4.219h-684.02l-6.1568 5.1806c-3.3862 2.8493-7.0875 8.5314-8.225 12.627-3.1624 11.386-2.6325 591.1 0.54873 600.34 1.3778 4.0002 5.3538 8.9795 9.2761 11.617l6.8648 4.6157 339.62-0.01c333.27-0.01 339.74-0.081 346.09-3.9513v5e-4zm-723.14-9.013 7.5465-6.9109 0.58864-23.899c0.52327-21.245 0.12578-24.641-3.5798-30.586-6.8977-11.066-13.35-12.506-56.038-12.502-32.133 0-39.007 0.5442-44.873 3.5355-12.196 6.2188-15.212 12.55-15.948 33.475-0.80828 22.98 2.091 32.808 11.558 39.179 6.6191 4.4542 8.4098 4.6196 50.032 4.6196h43.167l7.5465-6.911zm850.39 2.9709c10.22-6.2316 11.733-10.812 11.74-35.545 0.01-24.321-1.8388-29.724-12.553-36.754-4.6093-3.024-11.259-3.6601-43.914-4.2004-44.361-0.7339-51.837 0.7258-59.116 11.542-4.1102 6.1079-4.6196 9.293-4.6196 28.89 0 38.863 1.4259 39.818 59.599 39.918 38.53 0.067 43.018-0.2871 48.863-3.8516zm-856.96-106.04c11.978-5.0046 15.115-12.929 15.124-38.196 8e-3 -24.144-2.1009-30.441-12.195-36.403-4.6988-2.7757-12.364-3.3043-47.915-3.3043-40.741 0-42.577 0.1725-49.186 4.6195-9.5741 6.4428-12.434 16.226-11.487 39.298 0.86313 21.027 3.8008 27.198 15.877 33.356 5.8664 2.9914 12.74 3.5329 44.873 3.5356 28.46 0 39.686-0.7241 44.908-2.9058zm859.52-4.0659c3.4216-3.2806 7.2151-9.6446 8.4298-14.142 3.0354-11.238 1.2928-38.908-2.9621-47.034-6.3149-12.061-10.623-12.954-59.182-12.266l-43.483 0.6155-7.0736 7.7229-7.0735 7.7229 0.66672 24.901c0.57494 21.474 1.223 25.524 4.7073 29.424 8.1881 9.1641 13.423 10.023 57.956 9.5059l41.793-0.485 6.2212-5.9646zm-857.37-105.95c12.534-5.6928 15.52-13.76 14.673-39.643-0.56876-17.377-1.3969-21.854-4.9192-26.592-7.5025-10.092-10.657-10.686-56.909-10.718l-42.961-0.0298-7.5465 6.9125-7.5465 6.9125-0.70672 20.756c-0.82004 24.085 1.5823 34.326 9.3437 39.833 8.0029 5.6784 9.9398 5.911 50.962 6.1196 32.326 0.16425 38.488-0.31529 45.61-3.55zm852.44 0.91983c3.8291-1.5999 8.8377-5.9183 11.13-9.5964 3.7016-5.9386 4.1025-9.3423 3.5798-30.393l-0.5886-23.705-6.6007-6.5993-6.6006-6.5993-43.956-0.6109c-43.212-0.60055-44.075-0.53093-50.978 4.1106-9.0461 6.0826-11.827 14.462-11.914 35.896-0.0859 21.156 4.0661 31.945 14.218 36.946 9.3732 4.6175 80.948 5.0474 91.71 0.55088zm-852.86-108.97c13.091-5.4698 15.427-11.069 15.427-36.983 0-40.02-1.4864-41.043-59.599-41.043-58.113 0-59.599 1.0236-59.599 41.043 0 25.703 2.3039 31.377 14.981 36.897 8.9447 3.8945 79.512 3.9629 88.79 0.0861v-2e-5zm855.7-0.75303c10.837-5.548 14.313-14.388 14.313-36.396 0-22.161-3.0017-30.991-12.505-36.785-6.1334-3.7394-10.119-4.0773-48.104-4.0773-37.521 0-42.025 0.37088-47.884 3.9437-10.336 6.3022-12.726 13.228-12.717 36.852 6e-3 17.299 0.69452 21.935 4.0804 27.489 6.7652 11.096 12.446 12.345 56.521 12.43 33.629 0.0649 40.406-0.44113 46.296-3.4564zm-855.41-108.47c11.834-4.9444 15.115-13.015 15.124-37.192 9e-3 -23.609-2.5993-31.739-11.954-37.265-4.9998-2.9534-11.892-3.4468-48.156-3.4468-40.741 0-42.577 0.17251-49.186 4.6195-9.5741 6.4428-12.434 16.226-11.487 39.298 0.86314 21.027 3.8008 27.198 15.877 33.356 5.8664 2.9913 12.74 3.5329 44.873 3.5355 28.46 2e-3 39.686-0.72402 44.908-2.9057zm860.62-5.4594c5.3279-5.8171 7.0416-9.7774 8.1826-18.91 1.8907-15.133 0.1646-33.11-3.9414-41.051-5.9085-11.426-10.642-12.484-55.845-12.484-57.896 0-60.532 1.7304-60.48 39.708 0.0335 24.658 1.6595 29.587 12.075 36.606 6.8659 4.6269 7.7916 4.7026 50.132 4.1012l43.137-0.61272 6.7393-7.3581zm-855.38-105.35c9.5741-6.4428 12.434-16.226 11.487-39.298-0.86314-21.027-3.8008-27.198-15.877-33.356-5.8664-2.9913-12.74-3.5329-44.873-3.5355-42.71-3e-3 -49.208 1.4484-55.947 12.502-3.4262 5.6197-4.0785 10.186-4.0848 28.599-8e-3 23.937 2.042 30.214 11.857 36.306 4.4609 2.7685 12.11 3.3027 47.94 3.3479 41.11 0.0518 42.878-0.11118 49.497-4.5658zm855.93-2.2919 7.5465-6.9114 0.6793-22.215c0.546-17.852 0-23.655-2.7978-29.543-6.228-13.125-10.665-14.221-57.569-14.221-46.023 0-48.563 0.6173-56.569 13.747-3.1536 5.172-3.9381 10.186-3.9442 25.209-8e-3 21.06 2.6604 29.803 11.132 36.466 5.3265 4.1898 7.486 4.3798 49.772 4.3798h44.204l7.5465-6.9115z" fill="none"/>
  <path d="m794.06 339.02v-0.78918h70.458v1.5784h-70.458v-0.78918z" fill="none"/>
  <path d="m863.61 362.37c-0.555-0.0836-4.7979-0.0978-35.087-0.11792-22.602-0.015-34.456-0.0443-34.456-0.0851 0-0.0409 12.104-0.0623 35.229-0.0623h35.229v0.18941c0 0.22053 0.0288 0.21814-0.91545 0.0759z" fill="none"/>
  <path d="m837.94 362.08v-0.0167h6.2276v0.0334h-6.2276v-0.0167z" fill="none"/>
  <path d="m839.46 362.25-1.5248-1e-3v-0.1506h6.2276v0.1562l-1.589-1e-3c-0.87396-7.6e-4 -2.2752-2e-3 -3.1138-3e-3z" fill="none"/>
 </g>
</svg>
